<svg height="512" viewBox="0 0 512 512" width="70%"
    xmlns="http://www.w3.org/2000/svg">
    <g>
        <g>
            <g>
                <path d="m496 68v292h-480v-292a19.994 19.994 0 0 1 20-20h440a19.994 19.994 0 0 1 20 20z" fill="#9dbac2"/>
                <path d="m496 360v20a19.994 19.994 0 0 1 -20 20h-440a19.994 19.994 0 0 1 -20-20v-20z" fill="#e0e0e2"/>
                <path d="m320 448h-128l16-48h96z" fill="#9dbac2"/>
                <path d="m168 448h176v24h-176z" fill="#9dbac2"/>
            </g>
            <path d="m336 264v22.38a111.991 111.991 0 0 1 -160 0v-22.38a40 40 0 0 1 40-40h80a40 40 0 0 1 40 40z" fill="#9dbac2"/>
            <path d="m336 286.38v-22.38a40 40 0 0 0 -40-40h-80a40 40 0 0 0 -40 40v22.38a112 112 0 1 1 160 0z" fill="#1a6fb0"/>
            <circle cx="256" cy="168" fill="#9dbac2" r="40"/>
            <g fill="#9dbac2">
                <path d="m40 152h80v48h-80z"/>
                <path d="m392 152h80v48h-80z"/>
            </g>
        </g>
        <g>
            <path d="m476 40h-440a28.031 28.031 0 0 0 -28 28v312a28.031 28.031 0 0 0 28 28h160.9l-10.67 32h-18.23a8 8 0 0 0 -8 8v16h-56a8 8 0 0 0 0 16h304a8 8 0 0 0 0-16h-56v-16a8 8 0 0 0 -8-8h-18.23l-10.67-32h160.9a28.031 28.031 0 0 0 28-28v-312a28.031 28.031 0 0 0 -28-28zm-140 416v8h-160v-8zm-132.9-16 10.67-32h84.46l10.67 32zm284.9-60a12.01 12.01 0 0 1 -12 12h-440a12.01 12.01 0 0 1 -12-12v-12h464zm0-28h-464v-284a12.01 12.01 0 0 1 12-12h440a12.01 12.01 0 0 1 12 12z"/>
            <path d="m304 168a48 48 0 1 0 -48 48 48.054 48.054 0 0 0 48-48zm-48 32a32 32 0 1 1 32-32 32.036 32.036 0 0 1 -32 32z"/>
            <path d="m170.992 292.614a119.8 119.8 0 0 0 170.016 0 8.087 8.087 0 0 0 1.32-1.353 120 120 0 1 0 -172.656 0 8.087 8.087 0 0 0 1.32 1.353zm13.008-9.64v-18.974a32.036 32.036 0 0 1 32-32h80a32.036 32.036 0 0 1 32 32v18.974a103.812 103.812 0 0 1 -144 0zm72-178.974a103.951 103.951 0 0 1 87.984 159.388 48.047 48.047 0 0 0 -47.984-47.388h-80a48.047 48.047 0 0 0 -47.984 47.388 103.951 103.951 0 0 1 87.984-159.388z"/>
            <path d="m40 208h80a8 8 0 0 0 8-8v-48a8 8 0 0 0 -8-8h-80a8 8 0 0 0 -8 8v48a8 8 0 0 0 8 8zm8-48h64v32h-64z"/>
            <path d="m40 232h80a8 8 0 0 0 0-16h-80a8 8 0 0 0 0 16z"/>
            <path d="m40 256h80a8 8 0 0 0 0-16h-80a8 8 0 0 0 0 16z"/>
            <path d="m40 280h32a8 8 0 0 0 0-16h-32a8 8 0 0 0 0 16z"/>
            <path d="m104 264h-8a8 8 0 0 0 0 16h8a8 8 0 0 0 0-16z"/>
            <path d="m392 208h80a8 8 0 0 0 8-8v-48a8 8 0 0 0 -8-8h-80a8 8 0 0 0 -8 8v48a8 8 0 0 0 8 8zm8-48h64v32h-64z"/>
            <path d="m392 232h80a8 8 0 0 0 0-16h-80a8 8 0 0 0 0 16z"/>
            <path d="m392 256h80a8 8 0 0 0 0-16h-80a8 8 0 0 0 0 16z"/>
            <path d="m392 280h32a8 8 0 0 0 0-16h-32a8 8 0 0 0 0 16z"/>
            <path d="m456 264h-8a8 8 0 0 0 0 16h8a8 8 0 0 0 0-16z"/>
        </g>
    </g>
</svg>